<svg width="101" height="88" xmlns="http://www.w3.org/2000/svg">
  <path d="M89.847 41.321c4.376-4.964 4.2-12.563-.55-17.298a12.534 12.534 0 0 0-8.904-3.675c-.782 0-1.566.073-2.336.218a8.924 8.924 0 0 0-1.14-1.388 8.865 8.865 0 0 0-6.3-2.602 8.88 8.88 0 0 0-6.332 2.629c-.317.318-.597.66-.858 1.014a13.268 13.268 0 0 0-6.379-5.97 13.117 13.117 0 0 0-5.39-1.153 13.35 13.35 0 0 0-3.666.519c-1.154-4.026-4.032-7.461-7.977-9.221a14.33 14.33 0 0 0-5.871-1.253 14.46 14.46 0 0 0-13.194 8.553 14.418 14.418 0 0 0-1.206 4.721c-7.772.689-14.648 5.53-17.855 12.725a21.494 21.494 0 0 0-.443 16.56 21.516 21.516 0 0 0 11.402 12.022 21.497 21.497 0 0 0 8.805 1.882c.703 0 1.4-.038 2.088-.107l.034 18.049V87.88h3.1V77.547h5.905v10.335h3.1V77.547h5.906v10.335h3.1V77.547h5.905v10.335h3.1V77.547h5.906v10.335h3.1V77.547h5.905v10.335h3.1V77.547h5.906v10.336h3.1V77.547h5.905v10.335h3.1l-.066-46.56zM66.482 21.394a5.827 5.827 0 0 1 4.137-1.717c1.487 0 2.975.565 4.112 1.698a5.77 5.77 0 0 1 1.597 2.977 9.576 9.576 0 0 1 4.066-.903c2.431 0 4.858.922 6.715 2.771a9.538 9.538 0 0 1 .023 13.491 9.497 9.497 0 0 1-6.754 2.809 9.524 9.524 0 0 1-6.734-2.78c-1.766-1.76-3.456-3.496-4.844-3.496-.416 0-.803.155-1.159.512a5.268 5.268 0 0 1-3.752 1.561 5.3 5.3 0 0 1-3.756-9.038 5.224 5.224 0 0 1 3.725-1.543c.495 0 .99.067 1.469.203a5.82 5.82 0 0 1 1.155-6.545zM36.179 65.146V39.311c0-5.371-1.478-9.056-3.289-11.367H18.61c-3.423 0-6.2 5.554-6.2 12.4 0 6.849 2.777 12.401 6.2 12.401h5.121l.008 3.64a18.15 18.15 0 0 1-2.083.121 18.48 18.48 0 0 1-7.543-1.614C4.756 50.72.548 39.76 4.723 30.402c3.072-6.892 9.842-10.971 16.94-10.971.433 0 .868.016 1.302.046a11.283 11.283 0 0 1 .818-6.52c1.88-4.215 6.024-6.716 10.362-6.715 1.543 0 3.11.316 4.609.983 4.444 1.983 6.967 6.472 6.675 11.06a10.43 10.43 0 0 1 6.23-2.089c1.38 0 2.783.282 4.13.885 3.272 1.457 5.39 4.418 5.94 7.704-.003.04-.01.08-.013.12a8.27 8.27 0 0 0-3.783 2.185 8.506 8.506 0 0 0-.732.852H36.594c1.598 2.798 2.685 6.57 2.685 11.367v22.735h35.135V44.127a12.47 12.47 0 0 0 3.1 1.153v19.866H36.18zM21.71 40.345c0 6.002-2.328 9.3-3.1 9.3-.772 0-3.1-3.298-3.1-9.3 0-6.002 2.328-9.3 3.1-9.3.772 0 3.1 3.298 3.1 9.3zM68.58 12.4a6.201 6.201 0 0 0 0-12.4 6.201 6.201 0 0 0 0 12.4zm0-9.3c1.71 0 3.1 1.391 3.1 3.1 0 1.71-1.39 3.1-3.1 3.1-1.709 0-3.1-1.39-3.1-3.1 0-1.709 1.391-3.1 3.1-3.1zM84.082 14.467a5.166 5.166 0 0 0 5.167-5.166 5.166 5.166 0 0 0-5.167-5.167A5.166 5.166 0 0 0 78.915 9.3a5.166 5.166 0 0 0 5.167 5.166zm0-7.233c1.14 0 2.066.927 2.066 2.067 0 1.14-.926 2.066-2.066 2.066a2.069 2.069 0 0 1-2.067-2.066 2.07 2.07 0 0 1 2.067-2.067zM95.118 21.899a2.428 2.428 0 1 0 4.815.634 2.428 2.428 0 0 0-4.815-.634zm3.371.443a.972.972 0 0 1-1.926-.253.972.972 0 0 1 1.926.253zM88.118 17.899a.906.906 0 1 0 1.797.236.906.906 0 0 0-1.797-.236zm1.258.165a.363.363 0 1 1-.72-.095.363.363 0 0 1 .72.095zM96.179 9.358a1.37 1.37 0 1 0 2.716.358 1.37 1.37 0 0 0-2.716-.358zm1.901.25a.549.549 0 1 1-1.087-.144.549.549 0 0 1 1.087.144zM8.118 12.899a.906.906 0 1 0 1.797.236.906.906 0 0 0-1.797-.236zm1.258.165a.363.363 0 1 1-.72-.095.363.363 0 0 1 .72.095zM11.14 6.1a3.754 3.754 0 1 0 7.444.98 3.754 3.754 0 1 0-7.445-.98zm5.21.686a1.503 1.503 0 0 1-1.684 1.293 1.503 1.503 0 0 1-1.293-1.685A1.503 1.503 0 0 1 15.058 5.1c.82.108 1.4.865 1.293 1.685z"/>
</svg>
