<svg width="108" height="91" xmlns="http://www.w3.org/2000/svg">
  <path d="M11.991 13.444a6.201 6.201 0 0 0 8.089-9.4 6.201 6.201 0 0 0-8.089 9.4zm6.067-7.05a3.104 3.104 0 0 1 .328 4.372 3.104 3.104 0 0 1-4.372.328 3.104 3.104 0 0 1-.328-4.372 3.104 3.104 0 0 1 4.372-.328zM6.227 30.823a5.166 5.166 0 0 0 7.287-.546 5.166 5.166 0 0 0-.546-7.287 5.166 5.166 0 0 0-7.287.547 5.166 5.166 0 0 0 .546 7.286zm4.719-5.483c.864.744.962 2.05.218 2.915a2.069 2.069 0 0 1-2.915.218 2.069 2.069 0 0 1-.218-2.914 2.07 2.07 0 0 1 2.915-.219zM2.178 15.165a2.873 2.873 0 1 0 3.748-4.355 2.873 2.873 0 0 0-3.748 4.355zm2.624-3.05a1.15 1.15 0 0 1-1.5 1.743 1.15 1.15 0 0 1 1.5-1.742zM95.407 73.46a2.764 2.764 0 1 0 3.607-4.19 2.764 2.764 0 0 0-3.607 4.19zm2.525-2.934a1.107 1.107 0 0 1-1.443 1.677 1.107 1.107 0 0 1 1.442-1.677zM101.125 77.893a1.074 1.074 0 1 0 1.401-1.628 1.074 1.074 0 0 0-1.401 1.628zm.981-1.14a.43.43 0 1 1-.562.652.43.43 0 0 1 .562-.653zM71.525 53.2c-8.427 3.48-17.222 5.313-26.016 5.313-8.977 0-17.77-1.832-26.015-5.313-.55 13.924 1.649 24.916 7.145 26.565 8.794 2.565 18.87 2.198 18.87 2.198s10.077.367 18.871-2.198c5.313-1.649 7.512-12.641 7.145-26.565zM54.487 77.75a43.233 43.233 0 0 1-18.138 0c-8.061-1.65-11.725-8.978-9.527-13.924.367-.733 1.1-.916 1.832-.55 10.443 5.68 22.901 5.68 33.344 0 .733-.366 1.466-.183 1.832.55 2.382 4.946-1.282 12.275-9.343 13.924z"/>
  <path d="M71.342 26.451c-1.649-5.13-3.847-9.16-6.229-12.275-.733.367-1.465.733-2.198 1.283-2.748 3.114-6.046 8.427-7.512 13.557-1.282 4.397-5.313 7.695-10.076 7.695-4.764 0-8.794-3.115-10.077-7.695-1.466-5.496-5.13-11.359-8.061-14.29-1.832 3.114-3.481 6.962-4.58 11.908a147.997 147.997 0 0 0-3.298 24.734l.55.183c8.06 3.48 16.671 5.13 25.282 5.13 8.794 0 17.222-1.65 25.283-5.13l2.565-1.1V53.2c.183 8.427-.366 22.351-6.046 27.115 1.466-.367 2.748-.55 4.214-1.1 8.61-2.381 8.061-28.947.183-52.764zm-20.52 24.184H40.014a1.642 1.642 0 0 1-1.648-1.65c0-.915.732-1.648 1.648-1.648h10.81c.916 0 1.649.733 1.649 1.649s-.733 1.649-1.65 1.649z"/>
  <path d="M45.51 34.696c3.847 0 7.328-2.565 8.244-6.23.916-3.114 2.382-6.046 4.03-8.794-2.015 2.016-3.847 4.031-5.313 6.046v.55c0 3.847-3.114 7.145-7.145 7.145-4.03 0-7.145-3.114-7.145-7.145 0-3.481 2.565-6.412 5.863-6.962 2.931-4.03 7.145-8.61 12.825-12.275C51.554 4.1 46.974 4.1 46.241 4.1h-.916-.183c-1.1 0-10.26-.184-16.855 9.16 2.931 2.931 6.962 9.344 8.794 15.39 1.1 3.48 4.397 6.046 8.428 6.046zM42.761 69.872a3.76 3.76 0 0 0 0 5.313 3.76 3.76 0 0 0 5.314 0 3.76 3.76 0 0 0 0-5.313 3.76 3.76 0 0 0-5.314 0zm4.947 1.282l-3.48 3.481c-.184.183-.734.183-.917 0-.183-.183-.183-.733 0-.916l3.481-3.48c.183-.184.733-.184.916 0 .183.366.183.732 0 .915z"/>
  <path d="M42.761 24.253c-1.099 1.832-.366 4.213 1.65 4.946 1.648.55 3.297 0 4.213-1.465 2.199-3.665 8.977-13.375 19.97-17.222 3.664-1.283 7.878-.733 10.993 1.649 3.114 2.382 4.763 6.229 4.763 10.076v52.948h6.779V22.604c0-6.23-2.748-12.458-7.878-16.123C78.12 2.817 72.075 2.084 66.212 4.1c-12.641 4.58-20.52 15.572-23.45 20.153zM84.716 77.017c-.55 0-.916.366-1.099.916l-.366 3.114h9.343l-.366-3.114c0-.55-.55-.916-1.1-.916h-6.412zM107.251 90.025l-.55-2.016c-.732-2.93-3.297-5.13-6.412-5.13H75.556c-3.115 0-5.68 2.2-6.412 5.13l-.55 2.016c-.183.55.183.916.55.916h37.374c.55 0 .916-.367.733-.916zm-9.527-4.214c-.916 0-1.466-.367-1.466-.733s.733-.733 1.466-.733 1.466.367 1.466.733c0 .367-.55.733-1.466.733zM96.429 56.899a.906.906 0 1 0 1.797.236.906.906 0 0 0-1.797-.236zm1.258.165a.363.363 0 1 1-.72-.095.363.363 0 0 1 .72.095zM101.429 54.899a.906.906 0 1 0 1.797.236.906.906 0 0 0-1.797-.236zm1.258.165a.363.363 0 1 1-.72-.095.363.363 0 0 1 .72.095zM98.49 63.358a1.37 1.37 0 1 0 2.715.358 1.37 1.37 0 0 0-2.715-.358zm1.901.25a.548.548 0 1 1-1.087-.143.548.548 0 0 1 1.087.143z"/>
</svg>
