<svg width="117" xmlns="http://www.w3.org/2000/svg">
  <path d="M23.234 45.068V89h6.25c-.19-.379-.38-.568-.38-.947v-23.67c0-1.136.947-1.894 1.894-1.894H45.2c.947 0 1.894.758 1.894 1.894v23.67c0 .379 0 .758-.379.947h38.82V45.068L54.478 22.155 23.234 45.068zm18.936 3.409c-.568.189-.946.568-1.136 1.136l-1.515 2.65-1.514-2.65c-.19-.568-.758-.947-1.137-1.136l-2.65-1.515 2.65-1.515c.568-.19.947-.758 1.136-1.136l1.515-2.651 1.515 2.65c.19.569.568.947 1.136 1.137l2.651 1.515-2.65 1.515zM65.272 77.26h-9.089c-2.272 0-1.704-2.462-1.704-6.439h10.983v6.439h-.19zm7.764-27.269c.569-.189.947-.568 1.137-1.136l1.514-2.65 1.515 2.65c.38.568.758.947 1.136 1.136l2.652 1.515-2.651 1.515c-.569.19-.947.568-1.137 1.136l-1.515 2.652-1.514-2.652a1.707 1.707 0 0 0-1.137-1.136l-2.65-1.515 2.65-1.515zM67.545 62.49h9.09c.946 0 1.703.758 1.703 1.705v4.355H67.546v-6.06zm0 8.332h10.793c0 3.977.38 6.439-1.704 6.439h-9.09V70.82zm-2.273-2.272H54.48v-4.355c0-.947.757-1.705 1.704-1.705h9.09v6.06zm-4.165-27.647c0 3.598-3.03 6.628-6.628 6.628-3.598 0-6.628-3.03-6.628-6.628 0-3.598 3.03-6.628 6.628-6.628 3.598 0 6.628 3.03 6.628 6.628z"/>
  <path d="M99.358 43.364c1.325-2.462.189-5.302-2.083-6.628L56.75 7.574c-1.515-.757-3.03-.757-4.544 0l-20.64 14.77v-5.49H21.53V29.54l-9.847 7.007c-2.461 1.325-3.408 4.166-2.083 6.627 1.326 2.462 4.356 3.409 6.628 2.083 9.09-6.438 1.515-.946 38.251-27.646C90.458 43.93 83.641 38.819 92.73 45.447c2.462 1.325 5.492.378 6.628-2.083z"/>
  <path d="M31.566 10.604H21.53v4.166h10.036v-4.166zM80.61 12.12l1.516 2.65 1.515-2.65c.189-.569.568-.948 1.136-1.137l2.65-1.515-2.65-1.515a1.707 1.707 0 0 1-1.136-1.136l-1.515-2.651-1.515 2.651c-.19.568-.568.947-1.136 1.136l-2.651 1.515 2.65 1.515c.38.19.758.568 1.137 1.136zM97.275 59.46a1.707 1.707 0 0 1-1.136-1.137l-1.515-2.65-1.515 2.65c-.19.569-.568.947-1.136 1.137l-2.651 1.514 2.65 1.515c.569.19.947.569 1.137 1.137l1.515 2.65c1.136-2.082 1.514-3.218 2.65-3.787l2.652-1.514-2.651-1.515zM35.543 7.953l1.515 2.651 1.514-2.65c.19-.569.569-.948 1.137-1.137l2.65-1.515-2.65-1.515a1.707 1.707 0 0 1-1.137-1.136L37.058 0l-1.515 2.651c-.19.568-.568.947-1.136 1.136l-2.651 1.515 2.65 1.515c.38.19.758.568 1.137 1.136zM111.112 34.835a4.157 4.157 0 1 0 1.222-8.224 4.157 4.157 0 0 0-1.222 8.224zm.855-5.757a1.664 1.664 0 0 1-.489 3.29 1.664 1.664 0 0 1 .489-3.29zM109.535 41.297a1.551 1.551 0 1 0 .455-3.069 1.551 1.551 0 0 0-.455 3.07zm.319-2.148a.62.62 0 1 1-.183 1.227.62.62 0 0 1 .183-1.227zM103.337 30.986a2.336 2.336 0 0 0 2.647-1.977 2.336 2.336 0 0 0-1.958-2.662 2.336 2.336 0 0 0-2.647 1.978 2.335 2.335 0 0 0 1.958 2.661zm.482-3.247a.935.935 0 0 1 .783 1.064.936.936 0 0 1-1.059.792.935.935 0 0 1-.783-1.065.936.936 0 0 1 1.059-.791zM13.18 77.128a5.235 5.235 0 0 0 5.948-4.41 5.236 5.236 0 0 0-4.41-5.95 5.236 5.236 0 0 0-5.95 4.411 5.236 5.236 0 0 0 4.411 5.949zm1.076-7.251a2.097 2.097 0 0 1 1.764 2.379 2.097 2.097 0 0 1-2.38 1.764 2.096 2.096 0 0 1-1.763-2.38 2.097 2.097 0 0 1 2.379-1.763zM92.13 85.725a3.164 3.164 0 1 0 .93-6.26 3.164 3.164 0 0 0-.93 6.26zm.65-4.382a1.267 1.267 0 0 1-.371 2.504 1.267 1.267 0 0 1 .372-2.504zM92.317 74.83a1.332 1.332 0 1 0 .392-2.634 1.332 1.332 0 0 0-.392 2.634zm.274-1.844a.533.533 0 1 1-.158 1.055.533.533 0 0 1 .158-1.055zM11.133 31.073a1.96 1.96 0 1 0 .576-3.877 1.96 1.96 0 0 0-.576 3.877zm.403-2.714a.785.785 0 1 1-.233 1.552.785.785 0 0 1 .233-1.552zM10.707 84.238a1.954 1.954 0 1 0 .574-3.865 1.954 1.954 0 0 0-.574 3.865zm.401-2.706a.782.782 0 1 1-.23 1.548.782.782 0 0 1 .23-1.548zM2.9 71.251c1.602.238 3.095-.877 3.334-2.491.24-1.614-.864-3.115-2.466-3.353C2.166 65.17.673 66.285.434 67.9c-.24 1.614.864 3.114 2.466 3.352zm.607-4.09c.64.095 1.083.696.987 1.34a1.178 1.178 0 0 1-1.334.997 1.178 1.178 0 0 1-.986-1.34 1.179 1.179 0 0 1 1.333-.997z"/>
</svg>
