<svg width="102" height="88" xmlns="http://www.w3.org/2000/svg">
  <path d="M76.126 67.195H20.877V45.492H10.025v32.556h3.947v9.865h5.92l3.794-9.865h49.632l3.794 9.865h5.92v-9.865h3.946V45.492H76.126v21.703z"/>
  <path d="M73.166 58.316H23.838v5.92h49.328v-5.92zM38.636 14.799a5.92 5.92 0 1 0 0-11.84 5.92 5.92 0 0 0 0 11.84zm0-8.88a2.963 2.963 0 0 1 2.96 2.96 2.963 2.963 0 0 1-2.96 2.96 2.964 2.964 0 0 1-2.96-2.96 2.964 2.964 0 0 1 2.96-2.96zM21.864 9.865a4.932 4.932 0 1 0 0-9.865 4.932 4.932 0 0 0 0 9.865zm0-6.905c1.088 0 1.974.886 1.974 1.974a1.976 1.976 0 0 1-1.974 1.972 1.976 1.976 0 0 1-1.973-1.972c0-1.09.885-1.974 1.973-1.974z"/>
  <path d="M91.382 26.419a10.456 10.456 0 0 0-5.052-4.2c.776-2.97.341-6.206-1.343-8.896a11.304 11.304 0 0 0-9.636-5.33c-2.125 0-4.204.596-6.01 1.728a11.267 11.267 0 0 0-2.507 2.129 16.835 16.835 0 0 0-7.598-1.824c-3.117 0-6.166.877-8.818 2.537a16.581 16.581 0 0 0-7.717 12.21h-7.27c-.004-.027-.005-.054-.011-.08-1.158-5.568-6.122-9.61-11.802-9.61-.826 0-1.658.085-2.47.255-3.928.816-7.139 3.547-8.655 7.147a8.603 8.603 0 0 0-1.704.18c-4.602.958-7.565 5.482-6.61 10.088a8.538 8.538 0 0 0 3.204 5.046 7.938 7.938 0 0 0-.25 4.16 7.76 7.76 0 0 0 .574 1.712 2.942 2.942 0 0 1 2.318-1.14h.426a5.042 5.042 0 0 1-.42-1.177c-.39-1.861.316-3.682 1.657-4.848a5.554 5.554 0 0 1-4.61-4.355 5.571 5.571 0 0 1 5.451-6.705c.723 0 1.427.142 2.076.405.535-3.685 3.299-6.814 7.146-7.615a9.214 9.214 0 0 1 1.867-.194c4.05 0 7.689 2.72 8.772 6.73h-8.552c-5.426 0-9.866 4.44-9.866 9.866v7.892h6.905c.183 0 .361.021.536.054.054.01.106.024.16.037.122.03.242.066.356.11.053.021.104.038.155.062a2.957 2.957 0 0 1 1.753 2.697v9.866h49.328V45.49a2.96 2.96 0 0 1 2.96-2.96h4.881c.461.062.929.097 1.402.097 1.985 0 3.927-.56 5.617-1.617a10.524 10.524 0 0 0 4.7-6.6c.636-2.755.16-5.594-1.343-7.991zM40.73 42.532l-2.092 2.092-2.135-2.135-2.135 2.135-2.093-2.092 2.135-2.135-2.135-2.135 2.093-2.093 2.135 2.135 2.135-2.135 2.092 2.093-2.136 2.135 2.136 2.135zm24.001 0l-2.092 2.092-2.135-2.135-2.135 2.135-2.093-2.092 2.135-2.135-2.135-2.135 2.093-2.093 2.135 2.135 2.135-2.135 2.092 2.093-2.135 2.135 2.135 2.135zm21.726-4.03a7.583 7.583 0 0 1-3.425 1.123v-4.987c0-5.425-4.439-9.866-9.866-9.866H45.687a13.685 13.685 0 0 1 6.302-9.7 13.615 13.615 0 0 1 7.248-2.086c3.042 0 6.04 1.011 8.479 2.911a8.32 8.32 0 0 1 3.195-3.668 8.4 8.4 0 0 1 11.569 2.664c1.912 3.054 1.606 6.857-.468 9.556.13-.007.26-.01.391-.01 2.54 0 5.026 1.237 6.473 3.55 2.236 3.572 1.148 8.278-2.42 10.513zM7.118 16.91a2.428 2.428 0 1 0 4.815.635 2.428 2.428 0 0 0-4.815-.635zm3.371.444a.972.972 0 0 1-1.926-.254.972.972 0 0 1 1.926.254zM.118 12.91a.906.906 0 1 0 1.797.237.906.906 0 0 0-1.797-.237zm1.258.166a.363.363 0 1 1-.72-.096.363.363 0 0 1 .72.096zM8.179 4.37a1.37 1.37 0 1 0 2.716.358 1.37 1.37 0 0 0-2.716-.358zm1.901.25a.549.549 0 1 1-1.087-.144.549.549 0 0 1 1.087.144zM50.292 6.228a2.236 2.236 0 1 0 4.433.585 2.236 2.236 0 0 0-4.433-.585zm3.104.41a.895.895 0 0 1-1.774-.234.895.895 0 0 1 1.774.233zM60.402 1.393a1.393 1.393 0 1 0 2.763.364 1.393 1.393 0 0 0-2.763-.364zm1.934.255A.558.558 0 1 1 61.23 1.5a.558.558 0 0 1 1.106.147zM96.118 48.91a2.428 2.428 0 1 0 4.815.635 2.428 2.428 0 0 0-4.815-.635zm3.371.444a.972.972 0 0 1-1.926-.254.972.972 0 0 1 1.926.254zM89.118 44.91a.906.906 0 1 0 1.797.237.906.906 0 0 0-1.797-.237zm1.258.166a.363.363 0 1 1-.72-.096.363.363 0 0 1 .72.096zM97.179 36.37a1.37 1.37 0 1 0 2.716.358 1.37 1.37 0 0 0-2.716-.358zm1.901.25a.548.548 0 1 1-1.087-.144.548.548 0 0 1 1.087.144z"/>
</svg>
