<svg width="91" height="97" xmlns="http://www.w3.org/2000/svg">
  <path d="M78.67 9H21.65c-4.031 0-7.328 3.29-7.328 7.31v3.657h-2.164C6.005 19.967 1 24.96 1 31.1v5.848c0 6.14 5.006 11.133 11.158 11.133h30.041c1.974 0 3.74.9 4.908 2.313a6.31 6.31 0 0 1 1.454 4.035v9.31a8.148 8.148 0 0 0-3.551 1.857 8.044 8.044 0 0 0-2.71 6.014V88.89c0 4.46 3.657 8.109 8.127 8.109 4.47 0 8.127-3.65 8.127-8.109v-17.28a7.987 7.987 0 0 0-1.463-4.612 8.232 8.232 0 0 0-3.733-2.927V54.43c0-6.14-5.006-11.133-11.158-11.133H12.158a6.35 6.35 0 0 1-4.497-1.862 6.321 6.321 0 0 1-1.866-4.487V31.1c0-3.5 2.854-6.348 6.362-6.348h2.165v3.656a7.263 7.263 0 0 0 2.152 5.164 7.425 7.425 0 0 0 1.69 1.262 7.28 7.28 0 0 0 3.487.886h57.02a7.284 7.284 0 0 0 4.655-1.675 7.434 7.434 0 0 0 1.418-1.557A7.266 7.266 0 0 0 86 28.408V16.311C85.998 12.29 82.7 9 78.67 9z"/>
  <path d="M73.47 55.125a6.201 6.201 0 1 0 5.842 10.94 6.201 6.201 0 0 0-5.842-10.94zm4.38 8.205a3.104 3.104 0 0 1-4.195-1.275 3.104 3.104 0 0 1 1.275-4.195 3.104 3.104 0 0 1 4.195 1.275 3.104 3.104 0 0 1-1.275 4.195zM61.558 47.434a5.166 5.166 0 0 0-2.124 6.991 5.166 5.166 0 0 0 6.991 2.125 5.166 5.166 0 0 0 2.125-6.992 5.166 5.166 0 0 0-6.992-2.124zm3.407 6.38a2.069 2.069 0 0 1-2.797-.849 2.069 2.069 0 0 1 .85-2.797 2.069 2.069 0 0 1 2.797.85 2.07 2.07 0 0 1-.85 2.797zM75.412 45.353a2.873 2.873 0 1 0 2.706 5.07 2.873 2.873 0 0 0-2.706-5.07zm1.895 3.549a1.15 1.15 0 0 1-1.082-2.028 1.15 1.15 0 0 1 1.082 2.028zM9.895 10.101A4.73 4.73 0 1 0 8.359.765a4.73 4.73 0 0 0 1.536 9.336zm-1.15-7a2.368 2.368 0 0 1 2.716 1.95 2.368 2.368 0 0 1-1.95 2.716 2.368 2.368 0 0 1-2.717-1.95A2.368 2.368 0 0 1 8.744 3.1zM36.32 93.738a3.94 3.94 0 1 0-1.279-7.778 3.94 3.94 0 1 0 1.278 7.778zm-.895-5.445c.857-.14 1.67.442 1.81 1.3a1.578 1.578 0 0 1-1.3 1.812 1.578 1.578 0 0 1-1.81-1.3 1.579 1.579 0 0 1 1.3-1.812zM2.874 17.435a2.191 2.191 0 1 0-.71-4.325 2.191 2.191 0 0 0 .71 4.325zm-.498-3.028a.878.878 0 1 1 .283 1.732.878.878 0 0 1-.283-1.732zM88.118 50.406a.906.906 0 1 0 1.797.236.906.906 0 0 0-1.797-.236zm1.258.165a.363.363 0 1 1-.72-.095.363.363 0 0 1 .72.095zM67.118 40.899a.906.906 0 1 0 1.797.236.906.906 0 0 0-1.797-.236zm1.258.165a.363.363 0 1 1-.72-.095.363.363 0 0 1 .72.095zM83.179 40.358a1.37 1.37 0 1 0 2.716.358 1.37 1.37 0 0 0-2.716-.358zm1.901.25a.549.549 0 1 1-1.087-.144.549.549 0 0 1 1.087.145z"/>
</svg>
