<svg width="131" height="88" xmlns="http://www.w3.org/2000/svg">
  <path d="M6.2 19.446a6.201 6.201 0 0 0 0-12.4 6.201 6.201 0 0 0 0 12.4zm0-9.3c1.71 0 3.1 1.39 3.1 3.1 0 1.71-1.39 3.1-3.1 3.1-1.709 0-3.1-1.39-3.1-3.1 0-1.71 1.391-3.1 3.1-3.1zM16 7.046a2 2 0 1 0 0-4.001 2 2 0 0 0 0 4zm0-3a1.001 1.001 0 0 1 0 2 1.001 1.001 0 0 1 0-2zM13.167 33.38a5.166 5.166 0 0 0 5.167-5.167 5.166 5.166 0 0 0-5.167-5.167A5.166 5.166 0 0 0 8 28.213a5.166 5.166 0 0 0 5.167 5.166zm0-7.234c1.14 0 2.067.927 2.067 2.067 0 1.14-.927 2.066-2.067 2.066a2.069 2.069 0 0 1-2.067-2.066 2.07 2.07 0 0 1 2.067-2.067zM117.809 54.193a6.201 6.201 0 0 0 12.295 1.619 6.202 6.202 0 0 0-12.295-1.62zm9.221 1.214a3.103 3.103 0 0 1-3.478 2.669 3.104 3.104 0 0 1-2.669-3.479 3.104 3.104 0 0 1 3.478-2.669 3.104 3.104 0 0 1 2.669 3.479zM116 67.82a2.674 2.674 0 1 0 5.303.7 2.674 2.674 0 0 0-5.303-.7zm3.713.49a1.071 1.071 0 1 1-.922-1.2c.586.076.999.615.922 1.2zM115.349 43.698a2.675 2.675 0 1 0 5.303.699 2.675 2.675 0 0 0-5.303-.7zm3.713.489a1.07 1.07 0 1 1-2.123-.281 1.07 1.07 0 0 1 2.123.28zM84.35 41.698a2.675 2.675 0 1 0 5.303.699 2.675 2.675 0 0 0-5.304-.7zm3.712.489a1.071 1.071 0 0 1-2.122-.28 1.071 1.071 0 0 1 2.122.28zM83.118 49.451a.906.906 0 1 0 1.797.237.906.906 0 0 0-1.797-.237zm1.258.166a.363.363 0 1 1-.72-.096.363.363 0 0 1 .72.096zM90.179 46.484a1.37 1.37 0 1 0 2.716.359 1.37 1.37 0 0 0-2.716-.359zm1.901.25a.548.548 0 1 1-1.087-.143.548.548 0 0 1 1.087.144zM39.949 16.155L29.37 26.733l1.62 1.62 10.579-10.579-1.62-1.62zM47.042 12.3l-1.62-1.62-3.4 3.4 1.62 1.62 3.4-3.4zM47.748 17.515l-10.54 10.54 1.62 1.62 10.54-10.54-1.62-1.62zM95.465 37.798h10.108l-.796-5.726-9.313.017v5.709z"/>
  <path d="M105.892 40.089H95.465v4.062c0 3.97-1.782 7.569-5.148 10.41l-2.812 2.371c-2.317 1.955-3.492 4.467-3.492 7.467v19.549l3.206 3.088h21.453l3.328-3.04-6.108-43.907zm2.234 44.705h-20.57v-2.29h20.57v2.29zM108.063 24.189v-3.57H85.129l.021 3.429 3.77-.01-3.454 5.98a1.935 1.935 0 0 0 1.673 2.902 1.94 1.94 0 0 0 1.219-.434l6.38-5.183c.138.274.26.554.355.837.005.017.012.034.019.05.082.254.145.508.192.761.007.04.014.08.018.12.04.254.068.503.068.75h9.175l.023-1.262c.032-2.102 1.513-3.877 3.475-4.37z"/>
  <path d="M57.67 42.378h6.911v-2.29H57.67V4.591h36.65v13.736h5.727V0h-79.03v80.174H13V84.755h68.722V76.74H57.67v-34.36zm-30.926 34.36V4.593h25.2v35.495H45.07v2.291h6.873v34.36H26.744z"/>
</svg>
