<svg width="119" height="92" xmlns="http://www.w3.org/2000/svg">
  <path d="M68.794 89.879c.01-.002.018-.006.031-.006.274 0 .274.358.547.358s.273-.127.546-.127.273.652.545.652c.274 0 .274-.908.546-.908.273 0 .273.116.545.116.273 0 .273.433.545.433s.272-.512.545-.512c.272 0 .272.892.543.892.272 0 .272-.652.544-.652.273 0 .273.217.545.217s.272.27.544.27c.273 0 .273-.788.546-.788.272 0 .272.253.543.253.273 0 .273.562.545.562.273 0 .273-.19.545-.19s.272.097.543.097c.272 0 .272-.187.544-.187.273 0 .273.078.545.078s.272-.337.543-.337c.272 0 .272-.18.543-.18.272 0 .273.903.544.903.273 0 .273-.155.544-.155.272 0 .272-.54.544-.54s.272.71.543.71c.272 0 .272-.078.543-.078.27 0 .27-.296.542-.296s.272-.273.543-.273c.272 0 .272.66.543.66.272 0 .272-.679.544-.679s.272.412.544.412c.27 0 .27-.305.542-.305.271 0 .271-.1.542-.1.27 0 .27.656.541.656s.271-.195.542-.195c.272 0 .272.09.543.09.272 0 .272-.68.544-.68s.272-.134.543-.134.271-.09.543-.09.272.609.544.609.272-.201.544-.201c.271 0 .271.13.543.13s.272.327.543.327.272-.01.543-.01.271-.794.543-.794c.27 0 .271.051.543.051.271 0 .272.152.543.152.272 0 .272.114.544.114s.074.063.264-.131c.194-.197.38-.066.406-.261.037-.274.402-.294.402-.57 0-.276-.992-.276-.992-.553 0-.013.006-.024.008-.037H69.891a8.225 8.225 0 0 1-1.097 1.227zM68.683 89.978c-.025.023-.051.044-.077.066.1.097.064.016.077-.066zM40.1 12.096a8.473 8.473 0 1 0-16.505-3.843A8.473 8.473 0 0 0 40.1 12.096zM28.797 82.623c1.505-5.423 2.063-10.478 2.062-14.94-.009-9.295-2.356-16.014-3.46-18.67.005-.418-.008-.878-.038-1.383-.202-1.509-.253-3.077-.207-4.66a24.827 24.827 0 0 1-4.304-5.767c-2.58-4.762-2.878-8.926-2.886-10.495 0-.134.003-.221.004-.263a3.754 3.754 0 0 1 3.907-3.62 3.774 3.774 0 0 1 3.622 3.907c0 .01-.007 2.26 1.148 5.12.25-1.254.498-2.444.711-3.534 1.08-3.748-.333-8.235-3.549-9.037-3.215-.801-7.877.945-9.774 6.46-2.563 7.6-3.114 12.546-2.14 20.915.747 3.849 2.695 5.504 4.9 6.19.813 2.027 2.656 7.46 2.649 14.836-.002 4.206-.59 9.05-2.295 14.34.052 0 .103-.003.155-.003 3.204.001 6.466.337 9.495.604zM18.766 83.16c-.105.301-.21.603-.323.907a4.708 4.708 0 0 0 8.831 3.27 59.401 59.401 0 0 0 1.204-3.609c-2.976-.264-6.125-.58-9.176-.578-.18 0-.357.008-.536.01zM42.468 50.895l2.616 3.11c.018.878.034 1.985.034 3.256 0 3.751-.14 8.893-.733 13.532-.577 4.634-1.693 8.784-3.347 10.397-1.28 1.301-3.6 1.766-6.565 1.759-1.38 0-2.89-.094-4.478-.224l-.068.822-.024.304c1.602.131 3.139.228 4.57.229 3.054-.007 5.675-.422 7.365-2.09 2.038-2.08 3.044-6.329 3.667-11.053.605-4.72.743-9.896.743-13.675 0-.678-.005-1.308-.012-1.885l16.505 19.627c.087-.003.175-.007.263-.007 4.725 0 8.57 3.845 8.57 8.571 0 1.58-.432 3.06-1.18 4.331h24.332c.704 0 1.274-.57 1.274-1.273v-4.567c0-.703-.57-1.274-1.274-1.274H91.86v-4.752c0-.703-.666-1.16-1.274-1.273-.276-.052-4.567-.881-9.17-1.773v-7.03h.47c.832 0 1.507-.675 1.507-1.507v-1.695c0-.833-.675-1.507-1.507-1.507h-9.982c-.832 0-1.507.675-1.507 1.507v1.695c0 .832.674 1.507 1.507 1.507h.47v5.279l-2.488-.482c-.703 0-1.274.57-1.274 1.274v5.01l-6.017-7.155 2.844-2.392-7.691-14.754-7.864 2.03-4.802-5.71a3.734 3.734 0 0 1-2.614 1.838z"/>
  <path d="M28.81 33.968c-1.986-3.633-2.07-6.893-2.065-7.263a3.013 3.013 0 1 0-6.023-.227v-.001a5.796 5.796 0 0 0-.004.228c.005 1.011.147 5.251 2.796 10.142 2.628 4.893 7.912 10.293 17.407 13.215a3.016 3.016 0 0 0 3.772-1.983 3.014 3.014 0 0 0-1.983-3.772c-8.138-2.56-11.895-6.708-13.9-10.339zM70.444 83.567a7.44 7.44 0 1 0-14.88.002 7.44 7.44 0 0 0 14.88-.002zm-11.113 0a3.678 3.678 0 0 1 3.674-3.672 3.677 3.677 0 0 1 3.673 3.672 3.678 3.678 0 0 1-3.673 3.673 3.678 3.678 0 0 1-3.674-3.673zM8 84.494l.577.972c2.63-1.56 5.835-2.164 9.242-2.289l-.024-.643-.019-.486c-3.508.13-6.905.747-9.776 2.446zM99.185 59.956a2.262 2.262 0 1 0 1.171-4.37 2.262 2.262 0 0 0-1.17 4.37zm.82-3.06a.906.906 0 0 1-.468 1.749.906.906 0 0 1 .468-1.748zM97.535 65.297a1.551 1.551 0 1 0 .456-3.069 1.551 1.551 0 0 0-.456 3.07zm.319-2.148a.621.621 0 1 1-.184 1.228.621.621 0 0 1 .184-1.228zM91.302 59.981a2.336 2.336 0 0 0 2.647-1.978 2.336 2.336 0 0 0-1.958-2.661 2.336 2.336 0 0 0-2.647 1.978 2.336 2.336 0 0 0 1.959 2.661zm.483-3.247c.508.075.859.553.783 1.064a.936.936 0 0 1-1.059.791.936.936 0 0 1-.783-1.064.936.936 0 0 1 1.059-.791zM6.017 68.928a1.336 1.336 0 1 0 .692-2.582 1.336 1.336 0 0 0-.692 2.582zm.484-1.807a.535.535 0 1 1-.277 1.033.535.535 0 0 1 .277-1.033zM5.042 72.084a.917.917 0 1 0 .27-1.814.917.917 0 0 0-.27 1.814zm.189-1.27a.367.367 0 1 1-.109.726.367.367 0 0 1 .109-.726zM1.36 68.943a1.38 1.38 0 0 0 1.564-1.169 1.38 1.38 0 0 0-1.157-1.572 1.38 1.38 0 0 0-1.564 1.169 1.38 1.38 0 0 0 1.157 1.572zm.285-1.919c.3.045.508.327.463.63a.553.553 0 0 1-.626.467.553.553 0 0 1-.462-.63.553.553 0 0 1 .625-.467zM117.017 60.928a1.336 1.336 0 1 0 .692-2.582 1.336 1.336 0 0 0-.692 2.582zm.484-1.807c.285.076.455.37.379.654a.536.536 0 1 1-.379-.654zM116.042 64.084a.916.916 0 1 0 .27-1.812.916.916 0 0 0-.27 1.812zm.189-1.27a.366.366 0 1 1-.108.724.366.366 0 0 1 .108-.724zM112.36 60.943a1.38 1.38 0 0 0 1.564-1.169 1.38 1.38 0 0 0-1.157-1.572 1.38 1.38 0 0 0-1.564 1.169 1.38 1.38 0 0 0 1.157 1.572zm.285-1.919c.3.045.508.327.463.63a.553.553 0 0 1-.626.467.552.552 0 0 1-.462-.63.552.552 0 0 1 .625-.467zM103.372 84.947a1.387 1.387 0 1 0 .406-2.744 1.387 1.387 0 0 0-.406 2.744zm.285-1.92a.555.555 0 1 1-.165 1.098.555.555 0 0 1 .165-1.098zM105.882 76.896a.893.893 0 1 0 .262-1.766.893.893 0 0 0-.262 1.766zm.184-1.236a.357.357 0 1 1-.107.707.357.357 0 0 1 .107-.707zM100.303 78.981a2.336 2.336 0 0 0 2.646-1.978 2.336 2.336 0 0 0-1.958-2.661 2.336 2.336 0 0 0-2.647 1.978 2.336 2.336 0 0 0 1.959 2.661zm.482-3.247a.935.935 0 0 1 .783 1.064.936.936 0 0 1-1.059.791.935.935 0 0 1-.783-1.064.936.936 0 0 1 1.059-.791z"/>
</svg>
