<svg width="98" height="67" viewBox="0 0 98 67" fill="none" xmlns="http://www.w3.org/2000/svg">
<path d="M27.1488 14.4367L26.1546 15.3892L15.0765 5.18333C9.2534 9.53785 5.98678 13.8924 4.42449 16.75C3.99841 17.5665 3.57233 18.519 3.28827 19.3355H30.2734C29.2792 17.0222 28.001 15.3892 27.1488 14.4367Z" fill="#42A2D6"/>
<path d="M30.6994 25.0509H2.57806V26.8199H30.6994V25.0509Z" fill="#42A2D6"/>
<path d="M2.57806 32.6712V56.8932H30.6994V32.6712H2.57806ZM16.6387 53.7634C11.3837 53.7634 7.26495 49.681 7.26495 44.7822C7.26495 39.8833 11.5258 35.801 16.6387 35.801C21.7517 35.801 26.0125 39.8833 26.0125 44.7822C26.0125 49.8171 21.8937 53.7634 16.6387 53.7634Z" fill="#42A2D6"/>
<path d="M2.57806 63.1529C2.57806 64.3776 3.57225 65.3302 4.85049 65.3302H28.569C29.8472 65.3302 30.8414 64.3776 30.8414 63.1529V62.6086H2.57806V63.1529Z" fill="#42A2D6"/>
<path d="M30.9834 58.2541H2.29398C1.44182 58.2541 0.731689 58.9345 0.731689 59.751C0.731689 60.5675 1.44182 61.2478 2.29398 61.2478H31.1254C31.9776 61.2478 32.6877 60.5675 32.6877 59.751C32.5457 58.9345 31.8356 58.2541 30.9834 58.2541Z" fill="#42A2D6"/>
<path d="M30.9834 28.3164H2.29398C1.44182 28.3164 0.731689 28.9968 0.731689 29.8133C0.731689 30.6298 1.44182 31.3102 2.29398 31.3102H31.1254C31.9776 31.3102 32.6877 30.6298 32.6877 29.8133C32.5457 28.9968 31.8356 28.3164 30.9834 28.3164Z" fill="#42A2D6"/>
<path d="M2.29398 23.6899H31.1254C31.9776 23.6899 32.6877 23.0095 32.6877 22.193C32.6877 21.3765 31.9776 20.6961 31.1254 20.6961H2.29398C1.44182 20.6961 0.731689 21.3765 0.731689 22.193C0.731689 23.1456 1.44182 23.6899 2.29398 23.6899Z" fill="#42A2D6"/>
<path d="M27.2907 12.2594L26.5805 11.715L29.8471 6.68013C29.9892 6.40797 29.9892 5.99973 29.7051 5.72758L23.882 0.284428C23.74 0.0122702 23.4559 -0.123809 23.0299 0.148349L17.9169 3.55032L17.2067 3.006L15.9285 4.23071L26.0124 13.6201L27.2907 12.2594Z" fill="#42A2D6"/>
<path d="M16.0707 38.5227C14.7924 40.4278 11.9519 45.0544 11.9519 46.9595C11.9519 49.409 14.0823 51.4501 16.6388 51.4501C19.1952 51.4501 21.3256 49.409 21.3256 46.9595C21.3256 45.0544 18.4851 40.4278 17.2069 38.5227C16.9228 38.1144 16.3547 38.1144 16.0707 38.5227Z" fill="#42A2D6"/>
<path d="M58.5689 62.2953H54.736C52.2033 62.2953 50.1524 60.3295 50.1524 57.9038V47.8403C50.1524 45.4137 52.2042 43.4487 54.736 43.4487H55.4805V54.6099C55.4805 57.9688 56.6322 60.4892 58.5689 62.2953Z" fill="#42A2D6"/>
<path d="M97.5164 47.8403V57.9029C97.5164 60.3295 95.4647 62.2945 92.9329 62.2945H89.2657C91.2023 60.4883 92.354 57.9688 92.354 54.6091V43.4487H92.9329C95.4647 43.4487 97.5164 45.4137 97.5164 47.8403Z" fill="#42A2D6"/>
<path d="M76.4564 38.6484C74.3772 38.6484 73.3569 37.5227 73.4042 35.8754C73.4669 33.703 75.6242 33.4734 76.3594 33.4776C75.7565 33.0234 74.9999 32.7493 74.1763 32.7493C72.2233 32.7493 70.6354 34.27 70.6354 36.1411C70.6354 38.0098 72.2233 39.5321 74.1763 39.5321C75.0935 39.5321 75.9291 39.1923 76.5586 38.641C76.5251 38.6418 76.4882 38.6484 76.4564 38.6484Z" fill="#42A2D6"/>
<path d="M83.5433 38.7477C82.5307 38.7098 81.5182 38.7477 80.5108 38.7477C79.9336 38.7477 79.4063 38.7222 78.9056 38.7477C77.9755 40.4855 76.0896 41.5816 73.9168 41.5816C70.8233 41.5816 68.307 39.1698 68.307 36.2075C68.307 33.2436 70.8242 30.8335 73.9168 30.8335C75.9968 30.8335 77.8149 31.9147 78.7828 33.5333C79.1229 33.5259 79.4699 33.5333 79.8383 33.5333C80.838 33.5333 81.8359 33.5078 82.8356 33.5333C83.4548 33.5497 84.0732 33.5226 84.6906 33.5333C83.0117 30.0345 79.3265 27.6877 75.0521 27.6877H72.7805C66.9286 27.6877 62.169 32.2488 62.169 37.8549V51.6961C62.169 57.8905 67.9394 59.1922 72.7805 59.1922H75.0521C79.8933 59.1922 85.6637 57.8913 85.6637 51.6961V38.7477C84.9569 38.7337 84.2492 38.774 83.5433 38.7477Z" fill="#42A2D6"/>
<path d="M91.2067 38.7331V54.61C91.2067 57.9697 90.0551 60.4893 88.1184 62.2955C85.2483 64.9689 80.6467 66.0888 75.456 66.0888H72.3789C67.1873 66.0888 62.5866 64.9689 59.7156 62.2955C57.7789 60.4893 56.6273 57.9697 56.6273 54.61V35.8836C56.6273 27.5498 63.6807 20.7917 72.3789 20.7917H75.456C83.0823 20.7917 89.4479 25.9904 90.8976 32.8917C90.2732 33.3747 89.0236 33.6109 87.0698 33.6331C85.3161 28.9395 80.6295 25.5741 75.1348 25.5741H72.8598C65.869 25.5741 60.1793 31.0255 60.1793 37.7235V51.5638C60.1793 57.5863 64.8032 61.0447 72.8598 61.0447H75.1348C83.1914 61.0447 87.8092 57.5863 87.8092 51.5638V38.7331C88.6801 38.7051 90.7851 38.7348 91.2067 38.7331Z" fill="#42A2D6"/>
<path d="M97.4664 30.7274C97.4217 29.9054 97.6888 11.3732 97.4724 7.85548C97.183 3.14219 94.6864 -0.261126 83.0151 0.32639C77.0806 0.625085 73.544 4.32462 72.9832 11.7319C72.9076 11.7311 69.2851 15.9696 63.4022 22.7672C65.5896 21.0392 67.8681 20.3274 70.8121 19.9341C70.8121 19.9341 75.2599 15.1435 75.5854 14.3256C76.391 12.303 75.9556 3.80623 83.0975 3.46145C88.3724 3.20637 94.0397 3.75356 94.1136 8.06448C94.1754 11.6505 94.1144 30.028 94.1136 30.1951C92.888 30.3637 92.2353 30.864 92.1744 32.0062C92.0516 34.2583 87.9473 34.0444 85.6096 34.0197C82.4208 33.9851 80.0178 33.9991 76.6358 34.1612C74.4243 34.2673 73.903 38.1833 77.6105 38.1742C82.2859 38.1619 85.9625 38.0936 90.467 37.943C94.9681 37.7924 97.8211 35.2992 97.9971 32.0062C98.0272 31.4729 97.8177 31.0475 97.4664 30.7274Z" fill="#42A2D6"/>
<path d="M36.7239 44.8723C35.8969 44.293 35.5387 44.6131 35.081 45.2903L33.1246 47.5713C32.5312 48.2271 32.5904 48.8615 33.0147 49.1956L44.923 58.5744C45.7338 59.1381 46.0824 58.7209 46.5642 58.1573L48.5206 55.8771C49.0059 55.3127 49.3623 54.8379 48.6323 54.2512L44.1673 50.7351L55.6342 37.4017V36.6257C55.6342 33.9934 56.1538 31.6162 57.3897 29.462C49.0892 39.0655 41.1898 48.39 41.1898 48.39L36.7239 44.8723Z" fill="#42A2D6"/>
</svg>
