<svg width="99" height="66" viewBox="0 0 99 66" fill="none" xmlns="http://www.w3.org/2000/svg">
<path d="M98.5514 29.9959L89.2702 14.9979C89.0015 14.5468 88.6164 14.1712 88.1525 13.9082C87.6887 13.6452 87.1623 13.5039 86.625 13.4981H64.9688V2.99959C64.9688 2.20405 64.6428 1.44109 64.0626 0.87856C63.4824 0.316028 62.6955 0 61.875 0H3.86719C2.84155 0 1.85791 0.395034 1.13267 1.0982C0.407435 1.80136 0 2.75506 0 3.74949C0 4.74391 0.407435 5.69761 1.13267 6.40077C1.85791 7.10394 2.84155 7.49897 3.86719 7.49897H19.9392C20.6997 7.47021 21.4458 7.70498 22.0439 8.16121C22.642 8.61743 23.053 9.26528 23.2031 9.98863C23.2805 10.423 23.2581 10.8685 23.1377 11.2936C23.0172 11.7186 22.8016 12.1127 22.5062 12.4478C22.2109 12.7828 21.843 13.0507 21.4287 13.2322C21.0144 13.4138 20.564 13.5046 20.1094 13.4981H2.32031C1.70493 13.4981 1.11475 13.7352 0.679604 14.1571C0.244461 14.579 0 15.1512 0 15.7478C0 16.3445 0.244461 16.9167 0.679604 17.3386C1.11475 17.7605 1.70493 17.9975 2.32031 17.9975H14.6953C15.4479 17.9796 16.183 18.2193 16.7714 18.6746C17.3598 19.1299 17.7639 19.7717 17.9128 20.4872C17.9897 20.919 17.968 21.362 17.8493 21.7848C17.7306 22.2077 17.5178 22.6002 17.2258 22.9347C16.9339 23.2692 16.5699 23.5377 16.1594 23.7212C15.7489 23.9047 15.302 23.9987 14.85 23.9967H2.32031C1.70493 23.9967 1.11475 24.2337 0.679604 24.6556C0.244461 25.0775 0 25.6497 0 26.2464C0 26.8431 0.244461 27.4153 0.679604 27.8372C1.11475 28.2591 1.70493 28.4961 2.32031 28.4961H11.6016C12.3542 28.4781 13.0892 28.7179 13.6776 29.1732C14.266 29.6285 14.6702 30.2703 14.8191 30.9858C14.8959 31.4176 14.8742 31.8605 14.7555 32.2834C14.6368 32.7062 14.424 33.0987 14.1321 33.4333C13.8401 33.7678 13.4761 34.0363 13.0656 34.2197C12.6552 34.4032 12.2082 34.4973 11.7562 34.4953H2.32031C1.70493 34.4953 1.11475 34.7323 0.679604 35.1542C0.244461 35.5761 0 36.1483 0 36.745C0 37.3416 0.244461 37.9138 0.679604 38.3357C1.11475 38.7576 1.70493 38.9947 2.32031 38.9947H6.32672C7.07932 38.9767 7.81438 39.2164 8.40279 39.6717C8.9912 40.127 9.39534 40.7688 9.54422 41.4843C9.62083 41.9149 9.59949 42.3565 9.48169 42.7783C9.36388 43.2001 9.15246 43.5918 8.86221 43.9261C8.57196 44.2604 8.20988 44.5291 7.80131 44.7135C7.39275 44.898 6.94755 44.9936 6.49687 44.9938H3.09375C2.27324 44.9938 1.48633 45.3099 0.906138 45.8724C0.325948 46.4349 0 47.1979 0 47.9934L0 55.4924C0 56.2879 0.325948 57.0509 0.906138 57.6134C1.48633 58.176 2.27324 58.492 3.09375 58.492H11.2767C11.9414 60.6607 13.311 62.5633 15.1813 63.9162C17.0517 65.2691 19.3227 66 21.6562 66C23.9898 66 26.2608 65.2691 28.1312 63.9162C30.0015 62.5633 31.3711 60.6607 32.0358 58.492H68.5111C69.1758 60.6607 70.5453 62.5633 72.4157 63.9162C74.286 65.2691 76.5571 66 78.8906 66C81.2241 66 83.4952 65.2691 85.3656 63.9162C87.2359 62.5633 88.6054 60.6607 89.2702 58.492H95.9062C96.7268 58.492 97.5137 58.176 98.0939 57.6134C98.6741 57.0509 99 56.2879 99 55.4924V31.4957C98.9897 30.9661 98.8349 30.4486 98.5514 29.9959ZM21.6562 59.9918C20.7384 59.9918 19.8412 59.7279 19.0781 59.2335C18.3149 58.7391 17.7201 58.0364 17.3689 57.2142C17.0176 56.3921 16.9257 55.4874 17.1048 54.6146C17.2839 53.7418 17.7258 52.9401 18.3748 52.3108C19.0238 51.6816 19.8507 51.2531 20.7509 51.0795C21.6511 50.9059 22.5842 50.995 23.4321 51.3355C24.2801 51.6761 25.0049 52.2527 25.5148 52.9927C26.0247 53.7326 26.2969 54.6025 26.2969 55.4924C26.2969 56.6857 25.808 57.8301 24.9377 58.6739C24.0674 59.5177 22.887 59.9918 21.6562 59.9918ZM78.8906 59.9918C77.9728 59.9918 77.0756 59.7279 76.3124 59.2335C75.5493 58.7391 74.9545 58.0364 74.6032 57.2142C74.252 56.3921 74.1601 55.4874 74.3392 54.6146C74.5182 53.7418 74.9602 52.9401 75.6092 52.3108C76.2582 51.6816 77.0851 51.2531 77.9853 51.0795C78.8855 50.9059 79.8186 50.995 80.6665 51.3355C81.5145 51.6761 82.2392 52.2527 82.7492 52.9927C83.2591 53.7326 83.5313 54.6025 83.5312 55.4924C83.5312 56.6857 83.0423 57.8301 82.172 58.6739C81.3017 59.5177 80.1214 59.9918 78.8906 59.9918ZM64.9688 31.4957V19.4973H84.877L92.302 31.4957H64.9688Z" fill="#42A2D6"/>
</svg>
