<svg width="91" height="67" viewBox="0 0 91 67" fill="none" xmlns="http://www.w3.org/2000/svg">
<path d="M84.3994 0H31.1346C29.2221 0 27.4052 0.830329 26.0664 2.21421L1.87248 28.7847C-0.326961 31.1834 -0.326961 34.8738 1.87248 37.2725L25.9707 63.843C27.2139 65.2269 29.1265 66.0572 31.039 66.0572H84.3038C88.0333 66.0572 90.9978 63.1972 90.9978 59.5991V6.45811C91.0934 2.86002 88.1289 0 84.3994 0ZM25.4926 39.2099C21.9544 39.2099 19.0855 36.4422 19.0855 33.0286C19.0855 29.615 21.9544 26.8473 25.4926 26.8473C29.0308 26.8473 31.8997 29.615 31.8997 33.0286C31.8997 36.4422 29.0308 39.2099 25.4926 39.2099ZM61.64 49.0816V53.141C61.64 53.6023 61.2575 53.9713 60.8749 53.9713H56.7629C56.2848 53.9713 55.9023 53.6023 55.9023 53.141V49.1739C51.6947 48.8971 48.3477 45.7603 47.9652 41.7932C47.9652 41.3319 48.3477 40.9628 48.8258 40.9628H52.9378C53.3203 40.9628 53.6072 41.2396 53.7028 41.5164C53.9897 42.7158 55.1373 43.6383 56.4761 43.6383H60.0143C62.1181 43.6383 64.1263 42.1622 64.3176 40.1325C64.6044 37.7338 62.6919 35.7964 60.2055 35.7964H57.528C52.3641 35.7964 47.7739 32.1983 47.2958 27.3086C46.722 22.1421 50.6428 17.6214 55.711 16.9756V13.0085C55.711 12.5472 56.0935 12.2704 56.5717 12.2704H60.6837C61.1618 12.2704 61.4487 12.6394 61.4487 13.0085V16.9756C65.6563 17.2524 69.0033 20.3892 69.3858 24.3563C69.3858 24.8176 69.0033 25.1866 68.5252 25.1866H64.4132C64.0307 25.1866 63.7438 24.9098 63.6482 24.6331C63.3613 23.4337 62.2137 22.5111 60.8749 22.5111H57.2411C55.1373 22.5111 53.1291 23.9873 52.9378 26.0169C52.8422 28.2312 54.7548 30.2608 57.1455 30.2608H60.3012C66.0389 30.2608 70.629 35.0583 70.0552 40.6861C69.6727 45.0222 65.9432 48.3435 61.64 49.0816Z" fill="#42A2D6"/>
</svg>
