<svg width="68" height="66" viewBox="0 0 68 66" fill="none" xmlns="http://www.w3.org/2000/svg">
<path d="M47.6638 56.6455V44.4132C47.004 43.4689 46.6395 42.1369 45.4771 41.1257C44.8879 40.6129 43.1606 41.2429 43.0247 40.2215C42.8174 38.6684 44.5447 37.6979 45.0997 36.2452C45.6669 34.7633 45.304 34.9612 45.7178 33.1549C48.9378 32.2739 50.3804 25.0408 48.3053 24.8589C48.3691 24.5264 48.4306 24.1729 48.4929 23.8208H19.8246C19.8869 24.1736 19.9491 24.5264 20.0137 24.8589C17.9386 25.0408 19.4336 32.2914 22.6551 33.1724C23.0682 34.9772 22.6536 34.7633 23.2208 36.2452C23.7758 37.6979 25.5024 38.6684 25.2943 40.2215C25.1562 41.2429 23.4334 40.6129 22.8434 41.1257C21.681 42.1369 21.3158 43.4704 20.6568 44.4132V56.6455H47.6638Z" fill="#42A2D6"/>
<path d="M13.6069 57.1158V47.7322C9.33529 49.4366 1.98865 51.9988 0.773071 55.4018C0.0206407 57.5137 0.457976 59.2138 0.353957 61.5482H0.355476C0.355476 61.5482 0.353957 61.5598 0.353957 61.5642C0.353957 63.0933 4.07739 64.4733 10.0847 65.4707V62.2727C10.0854 60.0125 11.5106 57.9974 13.6069 57.1158Z" fill="#42A2D6"/>
<path d="M67.5473 55.4018C66.3317 51.9988 58.9858 49.4381 54.7134 47.7322V57.115C56.8098 57.9967 58.2357 60.0118 58.2357 62.2727V65.3186C64.1708 64.3344 67.9656 63.0169 67.9656 61.5649C67.9656 61.5598 67.9641 61.5526 67.9641 61.5526L67.9656 61.5482C67.8616 59.2138 68.3005 57.5144 67.5473 55.4018Z" fill="#42A2D6"/>
<path d="M17.5452 21.0267H50.7736C52.0681 21.0267 53.1182 20.022 53.1182 18.7817C53.1182 17.5414 52.0681 16.5367 50.7736 16.5367H50.1358C50.1358 10.5708 46.5703 5.40652 41.3717 2.88003L40.0483 10.0725C39.9442 10.6421 39.4272 11.0422 38.8433 11.0422C38.7727 11.0422 38.7013 11.0371 38.6299 11.0247C37.9633 10.9112 37.5191 10.3031 37.6368 9.66437L39.1478 1.44911C38.5814 0.579062 37.5753 0 36.4258 0H31.8915C30.7427 0 29.7375 0.579062 29.1703 1.44838L30.682 9.66365C30.7989 10.3016 30.3547 10.9098 29.6881 11.024C29.616 11.0364 29.5454 11.0415 29.4748 11.0415C28.8909 11.0415 28.3731 10.6414 28.269 10.0718L26.9472 2.88003C21.7485 5.40507 18.1845 10.5693 18.1845 16.5353H17.5452C16.2507 16.5353 15.2029 17.5399 15.2029 18.7802C15.2029 20.0206 16.2507 21.0267 17.5452 21.0267Z" fill="#42A2D6"/>
</svg>
